<?xml version="1.0" standalone="no"?>
<!DOCTYPE svg PUBLIC "-//W3C//DTD SVG 20010904//EN"
 "http://www.w3.org/TR/2001/REC-SVG-20010904/DTD/svg10.dtd">
<svg version="1.0" xmlns="http://www.w3.org/2000/svg"
 width="512.000000pt" height="512.000000pt" viewBox="0 0 512.000000 512.000000"
 preserveAspectRatio="xMidYMid meet">

<g transform="translate(0.000000,512.000000) scale(0.100000,-0.100000)"
fill="#000000" stroke="none">
<path d="M559 4632 c-84 -92 -171 -186 -193 -210 l-40 -42 28 -28 28 -27 78
85 78 84 33 -27 c19 -15 61 -50 94 -78 73 -61 119 -77 175 -60 111 33 162 150
106 245 -20 34 -185 197 -222 219 -7 4 -75 -62 -165 -161z m255 -15 c67 -65
76 -78 76 -110 0 -67 -71 -121 -131 -99 -29 12 -153 120 -157 139 -4 15 107
142 124 143 6 0 46 -33 88 -73z"/>
<path d="M913 4234 c-103 -113 -188 -209 -188 -212 0 -4 58 -61 128 -126 l128
-119 25 24 25 25 -101 93 c-55 51 -100 96 -100 100 0 5 75 90 166 190 l167
182 -23 25 c-13 13 -27 24 -31 24 -5 0 -93 -93 -196 -206z"/>
<path d="M1275 3899 c-143 -72 -262 -132 -264 -135 -6 -6 41 -54 53 -54 6 0
45 18 87 40 l77 40 86 -80 85 -81 -26 -67 c-38 -99 -38 -103 -4 -136 l30 -29
12 29 c10 26 48 128 156 424 19 52 37 103 40 113 7 21 -33 67 -56 66 -9 0
-133 -59 -276 -130z m236 3 c-50 -126 -85 -202 -91 -200 -4 2 -35 29 -69 60
l-61 57 42 24 c56 32 192 106 195 107 2 0 -6 -22 -16 -48z"/>
<path d="M1778 3686 c-94 -25 -195 -124 -231 -224 -21 -59 -22 -143 -1 -185
23 -46 92 -115 139 -139 53 -28 134 -27 199 1 l48 21 -25 33 c-14 17 -29 31
-34 30 -4 -1 -29 -10 -54 -20 -40 -15 -52 -15 -90 -4 -56 17 -103 67 -118 125
-24 95 51 219 167 277 82 41 189 3 232 -82 19 -36 20 -47 10 -91 -6 -28 -9
-52 -8 -53 2 -1 17 -10 35 -19 l31 -16 11 32 c15 43 14 122 -3 162 -19 46 -83
108 -137 133 -60 29 -115 35 -171 19z"/>
<path d="M2065 3180 c-104 -115 -188 -212 -187 -217 6 -12 302 -283 310 -283
4 0 15 11 24 25 l18 23 -124 114 c-69 62 -124 118 -123 125 2 12 114 133 124
133 3 0 54 -45 113 -100 60 -55 112 -100 117 -100 6 0 18 9 29 21 19 21 18 21
-96 128 l-114 108 31 39 c17 21 43 50 57 63 l26 25 28 -25 c15 -14 71 -65 126
-114 l98 -89 19 23 c10 13 19 26 19 30 0 7 -274 261 -295 273 -5 3 -95 -88
-200 -202z"/>
<path d="M2464 2824 c-104 -114 -190 -210 -192 -213 -1 -4 9 -18 24 -32 l26
-24 91 98 92 97 35 -32 c19 -17 68 -62 109 -100 l74 -69 -49 -52 c-27 -29 -68
-72 -92 -98 l-42 -45 29 -28 29 -28 188 207 c104 114 190 212 191 219 2 6 -9
20 -24 30 l-27 20 -76 -84 c-56 -60 -81 -81 -91 -75 -26 16 -199 179 -199 188
0 5 32 44 70 86 39 43 70 82 70 88 0 5 -11 19 -23 31 l-24 22 -189 -206z"/>
<path d="M2972 2524 c-28 -14 -75 -52 -106 -85 -139 -150 -107 -355 70 -444
145 -73 310 -2 395 171 28 57 31 71 27 127 -6 76 -33 131 -88 181 -89 81 -199
99 -298 50z m222 -74 c87 -52 112 -169 56 -266 -47 -84 -135 -144 -210 -144
-79 0 -159 63 -180 141 -27 101 45 225 164 281 51 23 117 19 170 -12z"/>
<path d="M3344 2014 c-104 -113 -190 -209 -192 -213 -2 -6 71 -76 216 -205 41
-38 43 -38 62 -21 11 10 20 23 20 29 0 6 -43 49 -95 96 -52 47 -95 90 -95 95
0 6 74 92 165 190 90 99 165 183 165 187 0 4 -13 16 -29 27 l-29 21 -188 -206z"/>
<path d="M3671 1707 l-194 -212 79 -73 c146 -135 201 -163 289 -143 69 16 131
56 186 122 78 92 101 167 79 249 -12 45 -98 145 -200 230 l-45 38 -194 -211z
m287 30 c78 -81 91 -115 72 -186 -23 -85 -157 -201 -234 -201 -17 0 -47 10
-66 21 -57 35 -141 111 -138 125 4 16 276 314 287 314 4 0 40 -33 79 -73z"/>
<path d="M4101 1319 c-101 -110 -184 -206 -185 -212 -1 -10 81 -89 276 -266
27 -24 28 -24 48 -6 11 10 19 24 18 30 -2 7 -56 60 -120 119 -65 59 -118 113
-118 119 1 7 27 41 59 77 l59 65 86 -80 c142 -131 143 -131 166 -110 31 28 44
12 -154 196 l-49 46 54 61 c30 33 57 61 61 61 4 1 61 -49 128 -110 117 -108
122 -111 140 -94 11 10 20 24 20 30 0 13 -275 268 -294 273 -6 1 -94 -88 -195
-199z"/>
<path d="M4488 952 l-187 -206 27 -29 27 -28 86 93 86 92 40 -32 c42 -33 73
-84 73 -120 0 -11 -9 -73 -20 -139 l-21 -118 38 -32 38 -32 17 92 c9 51 17
123 17 161 1 61 3 67 19 61 84 -36 126 -31 185 24 37 35 41 43 45 97 3 53 1
63 -25 97 -35 47 -232 227 -247 226 -6 0 -95 -93 -198 -207z m306 26 c79 -76
86 -86 86 -121 0 -50 -35 -87 -84 -87 -36 0 -119 55 -185 124 l-34 35 58 65
c32 36 61 66 65 66 5 0 47 -37 94 -82z"/>
</g>
</svg>
